<?xml version="1.0" standalone="no"?>
<!DOCTYPE svg PUBLIC "-//W3C//DTD SVG 20010904//EN"
 "http://www.w3.org/TR/2001/REC-SVG-20010904/DTD/svg10.dtd">
<svg version="1.0" xmlns="http://www.w3.org/2000/svg"
 width="500.000000pt" height="500.000000pt" viewBox="0 0 500.000000 500.000000"
 preserveAspectRatio="xMidYMid meet">

<g transform="translate(0.000000,500.000000) scale(0.100000,-0.100000)"
fill="#000000" stroke="none">
<path d="M2095 3957 c-204 -100 -264 -143 -417 -298 -159 -161 -196 -189 -249
-189 -31 0 -43 6 -72 41 -33 39 -57 101 -57 152 0 13 -6 32 -14 42 -12 17 -16
11 -46 -65 -102 -265 -95 -566 22 -914 16 -49 30 -108 31 -130 2 -40 1 -41
-30 -40 -74 4 -168 104 -263 279 -61 113 -117 178 -131 154 -5 -10 -5 -39 1
-71 14 -87 -9 -158 -51 -158 -43 0 -196 88 -267 154 -29 27 -32 28 -34 10 -3
-43 5 -69 37 -120 144 -225 138 -374 -15 -374 -34 0 -40 -3 -40 -21 0 -41 127
-142 269 -212 89 -45 155 -68 393 -135 111 -32 220 -79 225 -98 4 -12 -82 -58
-137 -73 -25 -7 47 -9 240 -9 178 0 285 -3 303 -11 26 -10 27 -9 27 19 0 100
-62 313 -120 415 -64 113 -100 239 -120 423 -20 179 10 384 77 535 24 54 52
82 34 35 -20 -55 -34 -201 -28 -309 8 -147 27 -234 88 -394 89 -231 129 -348
153 -450 70 -290 58 -522 -38 -731 -20 -42 -36 -78 -36 -80 0 -10 89 -2 97 9
41 54 88 222 102 366 6 66 14 101 28 120 30 40 102 60 218 61 55 1 118 4 140
8 l40 7 -40 12 c-56 17 -88 48 -75 73 10 19 28 26 250 107 166 60 281 119 361
186 56 47 129 135 129 157 0 4 -26 -1 -57 -12 -188 -62 -267 -13 -192 120 72
126 111 204 129 258 19 55 26 104 15 104 -19 0 -73 -47 -167 -142 -79 -81
-121 -115 -163 -134 -68 -31 -113 -27 -145 14 -22 27 -22 42 -4 130 5 28 4 32
-15 32 -11 0 -21 -4 -21 -10 0 -18 -133 -151 -209 -208 -88 -66 -186 -120
-198 -108 -4 4 -8 78 -8 164 0 263 40 362 252 625 35 43 63 82 63 87 0 19 -48
10 -139 -25 -94 -37 -132 -42 -177 -25 l-27 11 6 127 c9 228 69 386 189 504
68 65 69 68 42 68 -16 0 -87 -29 -159 -63z"/>
<path d="M3360 3982 c-509 -29 -910 -381 -996 -874 -8 -49 -14 -110 -12 -137
l3 -49 275 109 275 109 20 43 c28 61 168 197 237 230 165 79 363 75 523 -11
73 -39 187 -155 223 -228 83 -164 83 -361 -1 -518 -61 -117 -211 -241 -332
-276 -22 -6 -86 -15 -142 -20 -112 -10 -149 -24 -206 -78 -109 -105 -81 -322
52 -400 60 -35 178 -41 323 -17 411 69 738 368 845 774 22 83 26 118 27 261 1
178 -10 257 -51 375 -114 322 -383 576 -703 663 -108 30 -269 50 -360 44z"/>
<path d="M2695 1872 c-77 -37 -186 -88 -243 -115 l-102 -47 0 -370 0 -369 113
53 c61 29 176 84 255 121 l142 68 0 364 c0 284 -3 363 -12 362 -7 0 -76 -31
-153 -67z"/>
</g>
</svg>
