<?xml version="1.0" standalone="no"?>
<!DOCTYPE svg PUBLIC "-//W3C//DTD SVG 20010904//EN"
 "http://www.w3.org/TR/2001/REC-SVG-20010904/DTD/svg10.dtd">
<svg version="1.0" xmlns="http://www.w3.org/2000/svg"
 width="1868.000000pt" height="930.000000pt" viewBox="0 0 1868.000000 930.000000"
 preserveAspectRatio="xMidYMid meet">

<g transform="translate(0.000000,930.000000) scale(0.100000,-0.100000)"
fill="#000000" stroke="none">
<path d="M5063 8185 c-29 -8 -80 -26 -115 -41 -108 -45 -473 -231 -585 -298
-242 -144 -474 -343 -716 -616 -195 -221 -308 -305 -421 -317 -70 -7 -119 10
-173 60 -81 75 -124 175 -149 345 -15 111 -21 127 -53 156 -21 19 -21 19 -60
-65 -112 -243 -180 -537 -202 -877 -28 -420 50 -923 211 -1361 55 -149 80
-252 80 -326 0 -72 -10 -80 -82 -63 -192 43 -372 241 -602 662 -106 194 -149
257 -213 317 -62 58 -89 74 -99 57 -12 -19 -8 -159 6 -208 18 -62 15 -185 -4
-240 -20 -54 -59 -97 -96 -105 -81 -18 -479 200 -632 345 -71 68 -85 66 -95
-9 -9 -65 14 -124 100 -255 99 -152 148 -249 195 -384 32 -94 36 -119 37 -207
0 -79 -4 -107 -19 -135 -59 -111 -143 -140 -333 -114 -59 7 -109 14 -111 14
-11 0 76 -106 143 -175 179 -183 418 -343 690 -462 144 -63 359 -133 635 -207
364 -98 635 -198 685 -255 l20 -23 -25 -20 c-78 -65 -326 -157 -429 -159 l-46
-1 50 -9 c74 -13 399 -15 835 -5 410 9 490 5 578 -34 l45 -20 -7 106 c-14 214
-75 489 -152 684 -20 52 -83 185 -139 295 -142 278 -201 470 -252 810 -25 174
-25 612 1 780 24 155 74 354 121 480 34 91 124 280 130 273 1 -2 -10 -52 -25
-113 -100 -393 -82 -889 46 -1312 36 -119 47 -148 192 -518 191 -486 292 -842
349 -1220 13 -91 17 -182 18 -375 0 -223 -3 -271 -24 -384 -40 -228 -108 -428
-207 -614 l-55 -103 123 3 123 3 52 104 c57 114 112 276 143 419 25 112 50
323 50 413 0 94 22 158 75 216 81 92 190 122 430 123 140 0 316 13 434 32 l73
11 -83 24 c-140 40 -219 94 -219 149 0 48 82 89 410 206 478 170 728 283 900
405 52 38 151 124 220 193 123 123 184 205 196 266 l6 31 -111 -38 c-140 -48
-240 -69 -334 -69 -142 0 -217 42 -217 120 0 41 49 146 158 341 180 321 250
492 259 628 l6 84 -29 -7 c-63 -15 -142 -74 -249 -185 -335 -349 -402 -407
-530 -460 -85 -36 -192 -36 -255 -1 -67 37 -93 93 -87 185 3 39 14 93 25 121
15 42 17 57 8 84 -6 18 -19 38 -29 44 -20 12 -49 -15 -137 -129 -99 -128 -375
-370 -570 -500 -88 -59 -286 -162 -295 -153 -14 14 -29 218 -29 398 0 289 26
463 105 687 42 118 72 175 169 323 108 163 220 313 359 480 86 104 111 141
109 160 -3 21 -9 25 -41 28 -53 4 -187 -36 -332 -99 -111 -48 -127 -52 -215
-56 -76 -4 -105 -1 -145 14 l-50 19 -7 94 c-9 110 5 363 27 500 67 415 243
748 500 945 78 60 88 77 56 95 -24 13 -33 12 -98 -5z"/>
<path d="M7660 8089 c-476 -28 -865 -154 -1235 -400 -652 -434 -1054 -1141
-1082 -1903 -5 -134 -4 -158 8 -154 8 3 297 117 642 254 l628 247 31 61 c118
237 347 466 586 585 170 85 351 126 562 125 234 0 411 -42 612 -146 132 -67
232 -143 345 -261 142 -147 228 -288 288 -473 106 -321 79 -685 -70 -984 -120
-238 -338 -458 -575 -579 -180 -92 -321 -127 -565 -141 -240 -14 -330 -46
-446 -160 -116 -114 -162 -237 -162 -430 0 -192 46 -313 163 -431 74 -75 156
-121 257 -145 85 -20 413 -14 573 11 425 65 813 234 1150 501 109 87 316 295
400 402 209 267 361 571 439 875 91 354 108 776 46 1142 -81 474 -299 902
-640 1254 -177 183 -347 316 -562 439 -324 185 -690 287 -1108 307 -66 4 -129
7 -140 9 -11 1 -76 -1 -145 -5z"/>
<path d="M13945 6728 c-27 -73 -864 -2409 -869 -2425 l-7 -23 259 0 258 0 81
233 80 232 488 0 488 0 80 -232 81 -233 258 0 c142 0 258 3 258 8 1 4 -196
557 -437 1229 l-438 1223 -288 0 c-221 0 -289 -3 -292 -12z m469 -1083 l173
-500 -173 -3 c-95 -1 -253 -1 -352 0 l-179 3 175 508 c97 280 178 505 180 500
1 -4 81 -233 176 -508z"/>
<path d="M11010 5506 l0 -1226 245 0 245 0 0 470 0 470 229 0 c353 0 505 22
661 96 261 123 410 365 410 664 0 126 -23 228 -77 340 -38 80 -59 108 -128
176 -68 68 -99 90 -186 133 -196 97 -181 95 -831 99 l-568 3 0 -1225z m1085
795 c127 -50 196 -161 197 -316 1 -158 -52 -259 -164 -314 -91 -45 -149 -52
-399 -49 l-224 3 -3 353 -2 353 267 -3 c254 -3 271 -5 328 -27z"/>
<path d="M16016 5936 l414 -795 0 -431 0 -430 250 0 250 0 0 430 0 431 410
789 c226 435 410 792 410 795 0 3 -123 5 -273 5 l-273 0 -259 -555 c-142 -305
-261 -553 -263 -550 -2 2 -120 251 -262 552 l-257 548 -281 3 -280 2 414 -794z"/>
<path d="M11010 2745 l0 -1225 464 0 c502 0 563 5 721 56 343 112 597 377 700
730 39 132 55 261 55 434 0 305 -60 532 -195 742 -106 163 -232 275 -410 363
-123 62 -249 98 -398 114 -53 6 -284 11 -517 11 l-420 0 0 -1225z m1021 774
c193 -74 311 -203 380 -418 40 -124 52 -239 46 -421 -6 -181 -27 -280 -88
-408 -55 -114 -154 -219 -253 -267 -115 -56 -169 -66 -388 -72 l-198 -6 0 813
0 812 218 -4 c202 -4 222 -6 283 -29z"/>
<path d="M13947 3963 c-3 -5 -199 -550 -437 -1213 -238 -663 -435 -1211 -437
-1217 -4 -10 51 -13 255 -13 l260 0 57 168 c32 92 68 194 80 227 l22 60 488 0
488 0 22 -60 c12 -33 48 -135 80 -227 l57 -168 259 0 c143 0 259 3 259 7 0 4
-197 555 -437 1225 l-438 1218 -287 0 c-158 0 -289 -3 -291 -7z m466 -1081
l174 -502 -353 0 -354 0 11 28 c18 46 339 975 339 980 0 20 30 -62 183 -506z"/>
<path d="M15684 3808 c47 -90 234 -449 415 -798 l331 -635 0 -427 0 -428 250
0 250 0 0 428 0 427 414 798 413 797 -276 0 -276 -1 -256 -550 c-141 -302
-260 -550 -265 -551 -5 0 -125 248 -268 551 l-259 551 -279 0 -279 0 85 -162z"/>
<path d="M5923 3087 l-582 -272 -1 -857 c0 -472 3 -858 8 -858 4 0 269 125
589 277 l583 278 0 853 c0 468 -3 852 -7 852 -5 -1 -270 -123 -590 -273z"/>
</g>
</svg>
